<mxfile host="Electron" modified="2023-12-12T10:50:03.624Z" agent="Mozilla/5.0 (Windows NT 10.0; Win64; x64) AppleWebKit/537.36 (KHTML, like Gecko) draw.io/22.1.2 Chrome/114.0.5735.289 Electron/25.9.4 Safari/537.36" etag="aeinJDgXtT-_SmQxYb2L" version="22.1.2" type="device">
  <diagram name="Страница — 1" id="ITbXCDgDHhAvaYii6eS0">
    <mxGraphModel dx="473" dy="273" grid="1" gridSize="10" guides="1" tooltips="1" connect="1" arrows="1" fold="1" page="1" pageScale="1" pageWidth="827" pageHeight="1169" math="0" shadow="0">
      <root>
        <mxCell id="0" />
        <mxCell id="1" parent="0" />
        <mxCell id="dWGfFzWTr7BOs6LqSRkI-1" value="Физ. лицо" style="swimlane;fontStyle=0;childLayout=stackLayout;horizontal=1;startSize=26;fillColor=none;horizontalStack=0;resizeParent=1;resizeParentMax=0;resizeLast=0;collapsible=1;marginBottom=0;whiteSpace=wrap;html=1;" parent="1" vertex="1">
          <mxGeometry x="10" y="355" width="150" height="120" as="geometry" />
        </mxCell>
        <mxCell id="dWGfFzWTr7BOs6LqSRkI-2" value="&lt;u&gt;id&lt;br&gt;&lt;/u&gt;Серия и номер паспорта&lt;br&gt;ФИО&lt;br&gt;Номер телефона&lt;br&gt;Email&lt;br&gt;Адрес доставки" style="text;strokeColor=none;fillColor=none;align=left;verticalAlign=top;spacingLeft=4;spacingRight=4;overflow=hidden;rotatable=0;points=[[0,0.5],[1,0.5]];portConstraint=eastwest;whiteSpace=wrap;html=1;" parent="dWGfFzWTr7BOs6LqSRkI-1" vertex="1">
          <mxGeometry y="26" width="150" height="94" as="geometry" />
        </mxCell>
        <mxCell id="dWGfFzWTr7BOs6LqSRkI-5" value="Юр. лицо" style="swimlane;fontStyle=0;childLayout=stackLayout;horizontal=1;startSize=26;fillColor=none;horizontalStack=0;resizeParent=1;resizeParentMax=0;resizeLast=0;collapsible=1;marginBottom=0;whiteSpace=wrap;html=1;" parent="1" vertex="1">
          <mxGeometry x="10" y="510" width="150" height="120" as="geometry" />
        </mxCell>
        <mxCell id="dWGfFzWTr7BOs6LqSRkI-6" value="&lt;u&gt;id&lt;/u&gt;&lt;br&gt;ИНН&lt;br&gt;Название&lt;br&gt;Адрес доставки&lt;br&gt;ФИО представителя&lt;br&gt;Номер телефона" style="text;strokeColor=none;fillColor=none;align=left;verticalAlign=top;spacingLeft=4;spacingRight=4;overflow=hidden;rotatable=0;points=[[0,0.5],[1,0.5]];portConstraint=eastwest;whiteSpace=wrap;html=1;" parent="dWGfFzWTr7BOs6LqSRkI-5" vertex="1">
          <mxGeometry y="26" width="150" height="94" as="geometry" />
        </mxCell>
        <mxCell id="dWGfFzWTr7BOs6LqSRkI-9" value="Поставщик" style="swimlane;fontStyle=0;childLayout=stackLayout;horizontal=1;startSize=26;fillColor=none;horizontalStack=0;resizeParent=1;resizeParentMax=0;resizeLast=0;collapsible=1;marginBottom=0;whiteSpace=wrap;html=1;" parent="1" vertex="1">
          <mxGeometry x="630" y="690" width="100" height="100" as="geometry" />
        </mxCell>
        <mxCell id="dWGfFzWTr7BOs6LqSRkI-10" value="&lt;u&gt;id&lt;/u&gt;&lt;br&gt;ИНН&lt;br&gt;Адрес&lt;br&gt;Наименование" style="text;strokeColor=none;fillColor=none;align=left;verticalAlign=top;spacingLeft=4;spacingRight=4;overflow=hidden;rotatable=0;points=[[0,0.5],[1,0.5]];portConstraint=eastwest;whiteSpace=wrap;html=1;" parent="dWGfFzWTr7BOs6LqSRkI-9" vertex="1">
          <mxGeometry y="26" width="100" height="74" as="geometry" />
        </mxCell>
        <mxCell id="dWGfFzWTr7BOs6LqSRkI-13" value="Материал" style="swimlane;fontStyle=0;childLayout=stackLayout;horizontal=1;startSize=26;fillColor=none;horizontalStack=0;resizeParent=1;resizeParentMax=0;resizeLast=0;collapsible=1;marginBottom=0;whiteSpace=wrap;html=1;" parent="1" vertex="1">
          <mxGeometry x="840" y="540" width="140" height="140" as="geometry" />
        </mxCell>
        <mxCell id="dWGfFzWTr7BOs6LqSRkI-14" value="&lt;u&gt;id&lt;/u&gt;&lt;br&gt;Цвет&lt;br&gt;Название&lt;br&gt;Тип материала&lt;br&gt;Количество на складе&lt;br&gt;ИНН поставщика&lt;br&gt;Стоимость за единицу" style="text;strokeColor=none;fillColor=none;align=left;verticalAlign=top;spacingLeft=4;spacingRight=4;overflow=hidden;rotatable=0;points=[[0,0.5],[1,0.5]];portConstraint=eastwest;whiteSpace=wrap;html=1;" parent="dWGfFzWTr7BOs6LqSRkI-13" vertex="1">
          <mxGeometry y="26" width="140" height="114" as="geometry" />
        </mxCell>
        <mxCell id="dWGfFzWTr7BOs6LqSRkI-17" value="Накладная" style="swimlane;fontStyle=0;childLayout=stackLayout;horizontal=1;startSize=26;fillColor=none;horizontalStack=0;resizeParent=1;resizeParentMax=0;resizeLast=0;collapsible=1;marginBottom=0;whiteSpace=wrap;html=1;" parent="1" vertex="1">
          <mxGeometry x="414" y="380" width="120" height="120" as="geometry" />
        </mxCell>
        <mxCell id="dWGfFzWTr7BOs6LqSRkI-18" value="&lt;u&gt;id&lt;/u&gt;&lt;br&gt;Количество мебели&lt;br&gt;Номер документа&lt;br&gt;Цена за единицу&lt;br&gt;Номер заказа&lt;br&gt;Артикул" style="text;strokeColor=none;fillColor=none;align=left;verticalAlign=top;spacingLeft=4;spacingRight=4;overflow=hidden;rotatable=0;points=[[0,0.5],[1,0.5]];portConstraint=eastwest;whiteSpace=wrap;html=1;" parent="dWGfFzWTr7BOs6LqSRkI-17" vertex="1">
          <mxGeometry y="26" width="120" height="94" as="geometry" />
        </mxCell>
        <mxCell id="dWGfFzWTr7BOs6LqSRkI-21" value="Заказ" style="swimlane;fontStyle=0;childLayout=stackLayout;horizontal=1;startSize=26;fillColor=none;horizontalStack=0;resizeParent=1;resizeParentMax=0;resizeLast=0;collapsible=1;marginBottom=0;whiteSpace=wrap;html=1;" parent="1" vertex="1">
          <mxGeometry x="220" y="340" width="140" height="150" as="geometry" />
        </mxCell>
        <mxCell id="dWGfFzWTr7BOs6LqSRkI-22" value="&lt;u&gt;id&lt;/u&gt;&lt;br&gt;Дата оформления&lt;br&gt;Общая стоимость&lt;br&gt;Номер заказа&lt;br&gt;Категория заказчика&lt;br&gt;Статус&lt;br&gt;id_заказчика" style="text;strokeColor=none;fillColor=none;align=left;verticalAlign=top;spacingLeft=4;spacingRight=4;overflow=hidden;rotatable=0;points=[[0,0.5],[1,0.5]];portConstraint=eastwest;whiteSpace=wrap;html=1;" parent="dWGfFzWTr7BOs6LqSRkI-21" vertex="1">
          <mxGeometry y="26" width="140" height="124" as="geometry" />
        </mxCell>
        <mxCell id="dWGfFzWTr7BOs6LqSRkI-25" value="Фурнитура" style="swimlane;fontStyle=0;childLayout=stackLayout;horizontal=1;startSize=26;fillColor=none;horizontalStack=0;resizeParent=1;resizeParentMax=0;resizeLast=0;collapsible=1;marginBottom=0;whiteSpace=wrap;html=1;" parent="1" vertex="1">
          <mxGeometry x="380" y="580" width="140" height="140" as="geometry" />
        </mxCell>
        <mxCell id="dWGfFzWTr7BOs6LqSRkI-26" value="&lt;u&gt;id&lt;/u&gt;&lt;br&gt;Название&lt;br&gt;Цвет&lt;br&gt;Тип фурнитуры&lt;br&gt;Количество на складе&lt;br&gt;ИНН поставщика&lt;br&gt;Стоимость за единицу" style="text;strokeColor=none;fillColor=none;align=left;verticalAlign=top;spacingLeft=4;spacingRight=4;overflow=hidden;rotatable=0;points=[[0,0.5],[1,0.5]];portConstraint=eastwest;whiteSpace=wrap;html=1;" parent="dWGfFzWTr7BOs6LqSRkI-25" vertex="1">
          <mxGeometry y="26" width="140" height="114" as="geometry" />
        </mxCell>
        <mxCell id="dWGfFzWTr7BOs6LqSRkI-29" style="edgeStyle=orthogonalEdgeStyle;rounded=0;orthogonalLoop=1;jettySize=auto;html=1;entryX=0;entryY=0.803;entryDx=0;entryDy=0;entryPerimeter=0;endArrow=none;endFill=0;exitX=0.997;exitY=0.153;exitDx=0;exitDy=0;exitPerimeter=0;curved=1;" parent="1" source="dWGfFzWTr7BOs6LqSRkI-2" target="dWGfFzWTr7BOs6LqSRkI-22" edge="1">
          <mxGeometry relative="1" as="geometry" />
        </mxCell>
        <mxCell id="dWGfFzWTr7BOs6LqSRkI-30" style="edgeStyle=orthogonalEdgeStyle;rounded=0;orthogonalLoop=1;jettySize=auto;html=1;endArrow=none;endFill=0;exitX=0.997;exitY=0.149;exitDx=0;exitDy=0;exitPerimeter=0;entryX=-0.002;entryY=0.803;entryDx=0;entryDy=0;entryPerimeter=0;curved=1;" parent="1" source="dWGfFzWTr7BOs6LqSRkI-6" target="dWGfFzWTr7BOs6LqSRkI-22" edge="1">
          <mxGeometry relative="1" as="geometry">
            <mxPoint x="190" y="460" as="targetPoint" />
          </mxGeometry>
        </mxCell>
        <mxCell id="dWGfFzWTr7BOs6LqSRkI-31" style="edgeStyle=orthogonalEdgeStyle;rounded=0;orthogonalLoop=1;jettySize=auto;html=1;endArrow=none;endFill=0;entryX=0.003;entryY=0.787;entryDx=0;entryDy=0;entryPerimeter=0;exitX=1.005;exitY=0.47;exitDx=0;exitDy=0;exitPerimeter=0;curved=1;" parent="1" source="dWGfFzWTr7BOs6LqSRkI-22" target="dWGfFzWTr7BOs6LqSRkI-18" edge="1">
          <mxGeometry relative="1" as="geometry">
            <mxPoint x="400" y="400" as="targetPoint" />
          </mxGeometry>
        </mxCell>
        <mxCell id="dWGfFzWTr7BOs6LqSRkI-32" value="Мебель" style="swimlane;fontStyle=0;childLayout=stackLayout;horizontal=1;startSize=26;fillColor=none;horizontalStack=0;resizeParent=1;resizeParentMax=0;resizeLast=0;collapsible=1;marginBottom=0;whiteSpace=wrap;html=1;" parent="1" vertex="1">
          <mxGeometry x="620" y="390" width="110" height="150" as="geometry" />
        </mxCell>
        <mxCell id="dWGfFzWTr7BOs6LqSRkI-33" value="&lt;u&gt;id&lt;/u&gt;&lt;br&gt;Цвет&lt;br&gt;Артикул&lt;br&gt;id_материала&lt;br&gt;Тип мебели&lt;br&gt;Размеры&lt;br&gt;Название&lt;br&gt;id_фурнитуры" style="text;strokeColor=none;fillColor=none;align=left;verticalAlign=top;spacingLeft=4;spacingRight=4;overflow=hidden;rotatable=0;points=[[0,0.5],[1,0.5]];portConstraint=eastwest;whiteSpace=wrap;html=1;" parent="dWGfFzWTr7BOs6LqSRkI-32" vertex="1">
          <mxGeometry y="26" width="110" height="124" as="geometry" />
        </mxCell>
        <mxCell id="dWGfFzWTr7BOs6LqSRkI-36" style="edgeStyle=orthogonalEdgeStyle;rounded=0;orthogonalLoop=1;jettySize=auto;html=1;entryX=-0.011;entryY=0.349;entryDx=0;entryDy=0;entryPerimeter=0;endArrow=none;endFill=0;exitX=1.004;exitY=0.924;exitDx=0;exitDy=0;exitPerimeter=0;curved=1;" parent="1" source="dWGfFzWTr7BOs6LqSRkI-18" target="dWGfFzWTr7BOs6LqSRkI-33" edge="1">
          <mxGeometry relative="1" as="geometry" />
        </mxCell>
        <mxCell id="dWGfFzWTr7BOs6LqSRkI-37" style="edgeStyle=orthogonalEdgeStyle;rounded=0;orthogonalLoop=1;jettySize=auto;html=1;entryX=0.012;entryY=0.127;entryDx=0;entryDy=0;entryPerimeter=0;endArrow=none;endFill=0;exitX=1.005;exitY=0.471;exitDx=0;exitDy=0;exitPerimeter=0;curved=1;" parent="1" source="dWGfFzWTr7BOs6LqSRkI-33" target="dWGfFzWTr7BOs6LqSRkI-14" edge="1">
          <mxGeometry relative="1" as="geometry" />
        </mxCell>
        <mxCell id="dWGfFzWTr7BOs6LqSRkI-38" style="edgeStyle=orthogonalEdgeStyle;rounded=0;orthogonalLoop=1;jettySize=auto;html=1;entryX=-0.005;entryY=0.924;entryDx=0;entryDy=0;entryPerimeter=0;endArrow=none;endFill=0;exitX=1.002;exitY=0.12;exitDx=0;exitDy=0;exitPerimeter=0;curved=1;" parent="1" source="dWGfFzWTr7BOs6LqSRkI-26" target="dWGfFzWTr7BOs6LqSRkI-33" edge="1">
          <mxGeometry relative="1" as="geometry" />
        </mxCell>
        <mxCell id="dWGfFzWTr7BOs6LqSRkI-40" style="edgeStyle=orthogonalEdgeStyle;rounded=0;orthogonalLoop=1;jettySize=auto;html=1;entryX=0.006;entryY=0.376;entryDx=0;entryDy=0;entryPerimeter=0;endArrow=none;endFill=0;exitX=1.001;exitY=0.76;exitDx=0;exitDy=0;exitPerimeter=0;curved=1;" parent="1" source="dWGfFzWTr7BOs6LqSRkI-26" target="dWGfFzWTr7BOs6LqSRkI-10" edge="1">
          <mxGeometry relative="1" as="geometry" />
        </mxCell>
        <mxCell id="dWGfFzWTr7BOs6LqSRkI-41" style="edgeStyle=orthogonalEdgeStyle;rounded=0;orthogonalLoop=1;jettySize=auto;html=1;entryX=0.001;entryY=0.753;entryDx=0;entryDy=0;entryPerimeter=0;endArrow=none;endFill=0;exitX=0.997;exitY=0.378;exitDx=0;exitDy=0;exitPerimeter=0;curved=1;" parent="1" source="dWGfFzWTr7BOs6LqSRkI-10" target="dWGfFzWTr7BOs6LqSRkI-14" edge="1">
          <mxGeometry relative="1" as="geometry" />
        </mxCell>
      </root>
    </mxGraphModel>
  </diagram>
</mxfile>
